<?xml version="1.0" encoding="UTF-8"?>
<svg version="1.1" xmlns="http://www.w3.org/2000/svg" width="1862" height="488">
<path d="M0 0 C0.65594324 -0.00145344 1.31188648 -0.00290688 1.98770678 -0.00440437 C4.21306429 -0.00808986 6.4383544 -0.00456624 8.66371155 -0.0011425 C10.26428481 -0.00229332 11.86485782 -0.00388057 13.46543026 -0.00586975 C17.88505804 -0.01006853 22.30466439 -0.00796992 26.72429228 -0.00488353 C31.48234933 -0.00263187 36.24040256 -0.00610787 40.99845886 -0.00886345 C50.32793278 -0.01332266 59.65739867 -0.01234401 68.98687291 -0.00945081 C76.56550363 -0.00719737 84.1441321 -0.006884 91.72276306 -0.00797462 C93.33738698 -0.00820447 93.33738698 -0.00820447 94.98462957 -0.00843897 C97.17097831 -0.00875868 99.35732704 -0.00908289 101.54367578 -0.00941156 C122.07109469 -0.01226679 142.59850915 -0.00897865 163.12592733 -0.00361119 C180.76002495 0.00085689 198.394116 0.00008097 216.0282135 -0.00452995 C236.47947708 -0.00987495 256.93073674 -0.0119921 277.38200092 -0.00891769 C279.56055005 -0.00859912 281.73909918 -0.00828475 283.91764832 -0.00797462 C284.9896874 -0.00782035 286.06172648 -0.00766607 287.1662516 -0.00750712 C294.74050963 -0.00664174 302.31476518 -0.00810529 309.88902283 -0.01045418 C319.11271722 -0.01325155 328.33640309 -0.01251525 337.5600965 -0.00717343 C342.27100198 -0.00453557 346.98189323 -0.00353279 351.69279861 -0.00682259 C355.99813831 -0.00978381 360.30345049 -0.00819567 364.60878766 -0.00284503 C366.1733679 -0.0017201 367.73795042 -0.0023137 369.30252922 -0.00472082 C371.41519054 -0.00772397 373.52775526 -0.00468123 375.64041138 0 C376.81814149 0.00016235 377.9958716 0.0003247 379.2092905 0.00049198 C381.82020569 0.12584114 381.82020569 0.12584114 382.82020569 1.12584114 C382.9199643 2.72735829 382.94943962 4.33329045 382.95163345 5.93791008 C382.9554746 6.98590271 382.95931574 8.03389534 382.96327329 9.11364532 C382.9624068 10.27925624 382.96154032 11.44486717 382.96064758 12.64579964 C382.96510427 14.48695583 382.96510427 14.48695583 382.96965098 16.36530709 C382.97685539 19.78859866 382.97951219 23.21184007 382.98024845 26.63513565 C382.98209431 30.32199483 382.98963997 34.00884302 382.99638367 37.69569588 C383.0099951 45.7711678 383.015998 53.84663479 383.02039433 61.92211628 C383.02315585 66.97019176 383.02739341 72.01826531 383.0318985 77.06633949 C383.04410209 91.05420881 383.05439451 105.04207657 383.05777359 119.0299511 C383.05799316 119.92628699 383.05821272 120.82262288 383.05843894 121.74612047 C383.05865722 122.64459191 383.0588755 123.54306335 383.05910039 124.46876121 C383.05954385 126.28935035 383.05999041 128.1099395 383.06044006 129.93052864 C383.06066149 130.83360151 383.06088292 131.73667438 383.06111106 132.6671131 C383.06504712 147.25430262 383.08245964 161.84144182 383.10579959 176.42861196 C383.12959223 191.42062153 383.14197927 206.41260598 383.14314151 221.40463471 C383.14405462 229.81528917 383.14971312 238.22587832 383.16796112 246.63651466 C383.1834702 253.81018103 383.18842016 260.98376198 383.18022302 268.15744194 C383.17635235 271.80964541 383.17706674 275.46167751 383.19128036 279.11385918 C383.27060375 300.77990255 382.59832219 321.67381709 374.82020569 342.12584114 C374.57286682 342.77859016 374.32552795 343.43133919 374.07069397 344.10386848 C367.26939131 361.61306007 357.44667191 375.5152828 344.21083069 388.73130989 C342.81471744 390.12970438 341.42982198 391.53980507 340.07411194 392.97740364 C333.91629829 399.43386414 326.91546536 404.76051514 319.82020569 410.12584114 C319.10928772 410.66515266 318.39836975 411.20446419 317.66590881 411.76011848 C290.82472717 432.04337823 262.28528036 449.92176973 232.82020569 466.12584114 C231.31079407 466.95776985 231.31079407 466.95776985 229.77088928 467.8065052 C223.74171926 471.12212071 217.69215696 474.39621153 211.61805725 477.62877083 C208.94324435 479.06000579 206.28405827 480.51736956 203.62489319 481.97740364 C202.0450438 482.82020073 200.46436663 483.6614487 198.88270569 484.50084114 C197.84666199 485.08236946 197.84666199 485.08236946 196.78968811 485.67564583 C191.55043782 488.39423957 187.50217423 488.82280671 181.82020569 487.12584114 C177.13396781 485.14453971 172.66872065 482.79011906 168.19520569 480.37584114 C166.90235078 479.69076656 165.60904974 479.00653328 164.31532288 478.32310677 C152.68738009 472.15424109 141.19220674 465.75446158 129.82020569 459.12584114 C128.85260315 458.56493782 127.88500061 458.0040345 126.88807678 457.42613411 C98.78619376 441.07653099 70.6347664 423.20564887 45.82020569 402.12584114 C44.70237739 401.20446536 43.58384588 400.28394228 42.46473694 399.36412239 C22.0566931 382.44338715 6.83665353 362.17925184 -1.49229431 336.81334114 C-1.83792419 335.78611946 -1.83792419 335.78611946 -2.1905365 334.73814583 C-7.6892966 316.85304507 -7.61378221 298.4983213 -7.54265022 279.98055553 C-7.53160529 276.22895626 -7.53818787 272.4773784 -7.54243469 268.72577095 C-7.54802573 261.40802507 -7.53783801 254.09038532 -7.52214673 246.7726575 C-7.5045082 238.24602767 -7.5031855 229.71941768 -7.50253114 221.19277246 C-7.50084902 205.98944965 -7.48509913 190.7861749 -7.46104431 175.58287239 C-7.43771808 160.8292876 -7.42360856 146.07573328 -7.42002869 131.3221302 C-7.41980592 130.41067971 -7.41958315 129.49922922 -7.41935363 128.56015901 C-7.41891103 126.72400668 -7.41846901 124.88785434 -7.41802756 123.051702 C-7.41769822 121.69308922 -7.41769822 121.69308922 -7.41736221 120.30702972 C-7.41714623 119.40357042 -7.41693024 118.50011112 -7.41670771 117.56927427 C-7.41301295 103.49508373 -7.40165976 89.4208981 -7.38923182 75.34671294 C-7.38479372 70.2457321 -7.38135674 65.14475172 -7.37860969 60.0437697 C-7.37418754 51.96732522 -7.36644645 43.89089888 -7.35183528 35.81446587 C-7.3452107 32.12417108 -7.3401595 28.43389237 -7.33937454 24.74359131 C-7.33844814 20.75342733 -7.32978841 16.76330269 -7.32023621 12.77314949 C-7.32110269 11.59450148 -7.32196917 10.41585347 -7.32286191 9.20148885 C-7.31902076 8.14181264 -7.31517962 7.08213643 -7.31122208 5.99034882 C-7.30935233 4.60747777 -7.30935233 4.60747777 -7.30744481 3.19666994 C-7.03552415 -1.21460253 -3.70036609 0.0005101 0 0 Z M48.82020569 58.12584114 C48.71548505 61.20189941 48.67689249 64.25571491 48.67976379 67.33241463 C48.67679267 68.31090524 48.67382155 69.28939584 48.67076039 70.29753768 C48.66203133 73.60375798 48.66056156 76.90994224 48.65907288 80.21617317 C48.65444734 82.57618984 48.64942304 84.93620575 48.64402771 87.29622078 C48.6308683 93.73084649 48.62441413 100.16546527 48.62001705 106.60010195 C48.61725558 110.62163138 48.61301808 114.6431584 48.60851288 118.6646862 C48.59631073 129.80626779 48.58601733 140.94784745 48.58263779 152.08943558 C48.58241822 152.80328895 48.58219865 153.51714231 48.58197244 154.2526276 C48.58175416 154.96818503 48.58153588 155.68374245 48.58131099 156.42098343 C48.58086753 157.87094251 48.58042096 159.32090159 48.57997131 160.77086067 C48.57974988 161.49008929 48.57952845 162.20931791 48.57930031 162.95034133 C48.57536245 174.5734545 48.55794371 186.19650459 48.53461179 197.81959344 C48.51083197 209.76280109 48.49843272 221.70597722 48.49726987 233.6492089 C48.49635616 240.35052516 48.49035965 247.05174709 48.47245026 253.75304222 C48.45590364 260.06819837 48.45384605 266.38319981 48.46258926 272.69836998 C48.46335636 275.00770674 48.45906047 277.31705203 48.44913101 279.62636757 C48.33425917 308.02538995 54.04293041 327.98169552 74.36366272 348.66978645 C78.03542861 352.34032145 81.84739179 355.7848071 85.82020569 359.12584114 C86.34388733 359.56718391 86.86756897 360.00852669 87.40711975 360.46324348 C97.71573753 369.08924407 108.62705564 376.69982904 119.82020569 384.12584114 C120.62619202 384.66354134 121.43217834 385.20124153 122.2625885 385.75523567 C135.17700679 394.35192828 148.39461657 402.35607893 161.82020569 410.12584114 C162.78861389 410.68819466 163.75702209 411.25054817 164.754776 411.8299427 C167.62779015 413.49627188 170.50429716 415.15635013 173.38270569 416.81334114 C174.25725403 417.31873421 175.13180237 417.82412727 176.03285217 418.34483528 C177.25983826 419.04660896 177.25983826 419.04660896 178.51161194 419.76255989 C179.2251886 420.17207893 179.93876526 420.58159798 180.67396545 421.00352669 C183.02923135 422.23514508 185.2919773 423.29739077 187.82020569 424.12584114 C190.27488033 423.34379265 192.14696447 422.52698726 194.38270569 421.31334114 C195.38744934 420.78994148 195.38744934 420.78994148 196.41249084 420.25596809 C206.79764208 414.706694 216.7868087 408.39438985 226.80419922 402.21362495 C230.21206364 400.11134556 233.62965656 398.02708586 237.06239319 395.96568489 C246.91297581 390.0443314 256.45978909 383.79524561 265.82020569 377.12584114 C266.59042053 376.58024544 267.36063538 376.03464973 268.15419006 375.47252083 C277.67359565 368.70189139 286.74180026 361.76655104 295.16395569 353.66099739 C297.24323463 351.67650911 299.32772017 349.852233 301.57020569 348.06334114 C316.73702536 335.14345772 325.20563164 316.69864167 326.82020569 297.12584114 C326.95009629 293.7419326 326.95555382 290.36302007 326.94718933 286.97691536 C326.94952932 285.50248545 326.94952932 285.50248545 326.95191658 283.99826908 C326.95588491 280.72567339 326.95275322 277.45312462 326.94960022 274.18052864 C326.95095604 271.82617351 326.95273699 269.47181859 326.95491028 267.11746407 C326.9594611 260.74002879 326.95770524 254.36260973 326.95453119 247.98517418 C326.95225469 241.99025235 326.953993 235.99533199 326.95545839 230.0004102 C326.95830541 217.41370025 326.95503743 204.8269976 326.94965802 192.24028885 C326.94518239 181.43309301 326.94597366 170.62590789 326.95057678 159.81871223 C326.95592199 147.26339733 326.95803953 134.70808879 326.95496452 122.1527729 C326.95338133 115.50794963 326.953207 108.86313235 326.95650101 102.2183094 C326.95937766 95.98028319 326.95740787 89.74227738 326.95160675 83.50425339 C326.95027849 81.20838454 326.95067437 78.91251399 326.95286942 76.61664581 C326.95557809 73.49737285 326.95220341 70.37816643 326.94718933 67.25889778 C326.95053541 65.8775707 326.95053541 65.8775707 326.95394909 64.46833801 C327.3431011 60.4793557 327.3431011 60.4793557 325.82020569 57.12584114 C324.34595651 57.02820851 322.86703537 57.00028641 321.38955688 57 C319.94536959 56.99608838 319.94536959 56.99608838 318.4720068 56.99209774 C317.40170003 56.99432846 316.33139326 56.99655918 315.22865295 56.9988575 C314.10144364 56.99729751 312.97423433 56.99573752 311.81286716 56.99413025 C308.00410245 56.99011494 304.19537701 56.99331195 300.38661194 56.99644661 C297.66890886 56.99564332 294.9512075 56.99334941 292.23350525 56.99113655 C285.5991387 56.98667809 278.96478344 56.98765566 272.33041644 56.99054919 C266.94095438 56.99280293 261.55149548 56.99311588 256.16203308 56.99202538 C255.39645759 56.99187214 254.6308821 56.99171891 253.84210736 56.99156103 C252.28710262 56.99124132 250.73209788 56.99091711 249.17709315 56.99058844 C234.57840736 56.98773343 219.97972784 56.99102101 205.38104308 56.99638881 C192.84090404 57.00085687 180.30077425 57.00008094 167.76063538 56.99547005 C153.21599519 56.99012466 138.67136051 56.98800812 124.12671947 56.99108231 C122.57727242 56.99140088 121.02782536 56.99171525 119.4783783 56.99202538 C118.71591956 56.99217965 117.95346083 56.99233393 117.16789728 56.99249288 C111.78174525 56.99335814 106.39559669 56.99189496 101.00944519 56.98954582 C94.45006951 56.98674802 87.8907058 56.98748566 81.33133149 56.99282657 C77.98139848 56.99546386 74.63150212 56.99593445 71.28156662 56.99317741 C67.65827688 56.99046913 64.03504445 56.99384309 60.41175842 56.9988575 C59.34145165 56.99662678 58.27114489 56.99439605 57.16840458 56.99209774 C56.20561305 56.99470548 55.24282152 56.99731323 54.25085449 57 C52.99460345 57.00024353 52.99460345 57.00024353 51.71297359 57.00049198 C49.80857206 56.91786302 49.80857206 56.91786302 48.82020569 58.12584114 Z " fill="#EA1E24" transform="translate(7.1797943115234375,-0.1258411407470703)"/>
<path d="M0 0 C17.96769275 16.27352783 29.8396776 37.86662896 33 62 C33 65.63 33 69.26 33 73 C16.83 73 0.66 73 -16 73 C-17.65 66.73 -19.3 60.46 -21 54 C-28.39463364 37.93089228 -37.9408057 28.4086051 -54.28515625 21.859375 C-71.84640991 16.30041701 -90.54521312 17.71230089 -107.3125 25.1875 C-121.47233263 32.92601318 -129.39383863 45.92600511 -134 61 C-137.61626245 75.77510286 -137.46678921 90.73362326 -137.39111328 105.85839844 C-137.37402187 109.3074036 -137.38417908 112.75571427 -137.40143585 116.2046957 C-137.50863164 141.4427045 -136.93922712 167.18652519 -118.6875 186.8125 C-104.38272245 200.10004893 -86.40900859 201.77350522 -67.83447266 201.17480469 C-53.50442985 200.291057 -40.69861999 193.82162255 -30.9609375 183.36328125 C-22.15562568 172.75130187 -18.94551017 160.25479577 -16 147 C0.17 147 16.34 147 33 147 C33 159.97834767 33 159.97834767 31.4375 166.6875 C31.26259033 167.45078613 31.08768066 168.21407227 30.9074707 169.00048828 C28.91678801 177.11925235 25.75516052 184.554458 22 192 C21.46503906 193.06992187 20.93007813 194.13984375 20.37890625 195.2421875 C16.0212925 203.28862056 10.33406555 209.50473817 4 216 C3.42765625 216.64582031 2.8553125 217.29164063 2.265625 217.95703125 C-13.9230502 235.77291865 -41.41478851 244.92176314 -64.75610352 246.20678711 C-68.73455421 246.30315097 -72.70830675 246.3340286 -76.6875 246.3125 C-77.73973755 246.30976578 -77.73973755 246.30976578 -78.81323242 246.30697632 C-89.76598783 246.25915381 -100.35042007 245.72543406 -111 243 C-111.66805664 242.83371094 -112.33611328 242.66742188 -113.02441406 242.49609375 C-128.13016652 238.60248691 -141.83856148 231.78506547 -154 222 C-154.69222656 221.47148437 -155.38445313 220.94296875 -156.09765625 220.3984375 C-174.37356751 205.64690674 -183.62749966 182.18797954 -188.25 159.875 C-188.41346924 159.08826904 -188.57693848 158.30153809 -188.74536133 157.4909668 C-190.83942405 146.63199514 -191.15632692 135.61744441 -191.16796875 124.5859375 C-191.17129715 123.45080719 -191.17462555 122.31567688 -191.17805481 121.14614868 C-191.18307889 118.76133626 -191.18546455 116.37651692 -191.18530273 113.99169922 C-191.18748208 110.40450033 -191.20566752 106.81761321 -191.22460938 103.23046875 C-191.26681029 86.43021859 -190.90842659 69.70297929 -186.8125 53.3125 C-186.59891846 52.44367188 -186.38533691 51.57484375 -186.1652832 50.6796875 C-181.55386708 32.86827664 -172.82236192 17.22232551 -160 4 C-159.47277344 3.39929688 -158.94554687 2.79859375 -158.40234375 2.1796875 C-120.38563479 -39.62896941 -40.43979936 -34.28229905 0 0 Z " fill="#000000" transform="translate(887,98)"/>
<path d="M0 0 C0.72574219 0.61359375 1.45148438 1.2271875 2.19921875 1.859375 C17.40196981 15.83754297 22.31257298 34.33372254 26 54 C26 69.18 26 84.36 26 100 C-15.91 100 -57.82 100 -101 100 C-98.28528034 121.74197356 -98.28528034 121.74197356 -86 138 C-75.24590612 145.10012639 -62.52534376 146.66450522 -49.9375 144.46484375 C-40.95081343 142.18072758 -33.52364603 138.64445429 -27 132 C-25.02 128.37 -23.04 124.74 -21 121 C-5.82 121 9.36 121 25 121 C21.44114688 135.23541247 21.44114688 135.23541247 18.5 141 C18.15888184 141.67224609 17.81776367 142.34449219 17.46630859 143.03710938 C13.70139437 150.08189779 8.78329365 155.55114223 3 161 C2.22011719 161.73734375 1.44023438 162.4746875 0.63671875 163.234375 C-16.3582211 177.97284385 -38.71510069 183.40963704 -60.6875 183.3125 C-61.68103485 183.30926727 -61.68103485 183.30926727 -62.69464111 183.30596924 C-87.48715795 183.17654151 -110.30837969 176.85793113 -128.375 159.25 C-147.98665201 139.12612724 -151.57365524 112.70603822 -151.39111328 85.81152344 C-151.37500837 83.00145978 -151.39108371 80.19283358 -151.41015625 77.3828125 C-151.44093322 51.1598327 -147.09312427 24.86085568 -128.2734375 5.23828125 C-127.52320313 4.49964844 -126.77296875 3.76101562 -126 3 C-125.29101562 2.29230469 -124.58203125 1.58460938 -123.8515625 0.85546875 C-92.01060106 -29.20377824 -32.59538336 -27.95286249 0 0 Z M-91 28 C-99.31995294 38.66847357 -100.04162287 49.58272021 -101 63 C-74.93 63 -48.86 63 -22 63 C-22 48.40435269 -22.51718086 36.64817624 -33.00390625 25.95703125 C-43.72996694 16.95788552 -55.22802142 15.93362597 -68.73291016 16.77685547 C-77.48669569 17.6384708 -84.88099788 21.77364696 -91 28 Z " fill="#000000" transform="translate(644,160)"/>
<path d="M0 0 C2.5135312 2.20265706 4.91236711 4.47118197 7.27734375 6.83203125 C7.90253906 7.445625 8.52773437 8.05921875 9.171875 8.69140625 C33.30859214 34.19024061 29.27734375 70.1119533 29.27734375 102.83203125 C-12.30265625 102.83203125 -53.88265625 102.83203125 -96.72265625 102.83203125 C-95.73770921 116.62128977 -94.73856846 128.80102316 -84.6484375 138.91015625 C-74.44540858 147.38597085 -62.60186387 148.56643168 -49.72265625 147.83203125 C-39.1750006 146.32704532 -29.98433443 142.20029656 -23.07421875 133.93359375 C-21.01304725 130.72865079 -19.42677405 127.24026685 -17.72265625 123.83203125 C-2.54265625 123.83203125 12.63734375 123.83203125 28.27734375 123.83203125 C23.51374635 144.47428667 14.19824034 160.02445289 -3.72265625 171.83203125 C-20.4395312 181.74754769 -37.2095338 186.06530318 -56.59765625 186.08203125 C-57.29518005 186.08270599 -57.99270386 186.08338074 -58.71136475 186.08407593 C-83.01286733 186.0466481 -106.2033118 180.20401397 -124.00390625 162.64453125 C-144.14051248 141.81355929 -148.13011993 116.12513011 -147.98339844 88.24804688 C-147.97266091 85.83307821 -147.9833835 83.41885296 -147.99609375 81.00390625 C-148.02038513 54.77337566 -144.05093582 28.86273995 -125.72265625 8.83203125 C-125.13226562 8.15011719 -124.541875 7.46820313 -123.93359375 6.765625 C-94.55067867 -25.18048055 -32.8555558 -26.16188446 0 0 Z M-86.72265625 29.83203125 C-95.7963243 40.76167686 -96.72265625 51.78625395 -96.72265625 65.83203125 C-70.65265625 65.83203125 -44.58265625 65.83203125 -17.72265625 65.83203125 C-17.72265625 51.77889083 -19.88802029 39.32343132 -29.5234375 28.7265625 C-40.1588833 19.56458877 -52.06767056 19.15712261 -65.33837891 19.65283203 C-73.529351 20.26845496 -80.91482381 24.10061766 -86.72265625 29.83203125 Z " fill="#000000" transform="translate(1639.72265625,157.16796875)"/>
<path d="M0 0 C1.96447597 1.65247097 3.72837208 3.3744763 5.4921875 5.23828125 C6.15347656 5.88023437 6.81476563 6.5221875 7.49609375 7.18359375 C23.0013886 23.13021578 25.66874759 45.23186319 25.60571289 66.46899414 C25.60585892 67.76753326 25.60600494 69.06607239 25.6061554 70.40396118 C25.60644047 73.93845358 25.60059083 77.47291154 25.59358144 81.00739598 C25.58729942 84.71093776 25.58674028 88.41448045 25.58555603 92.11802673 C25.58245695 99.1194713 25.57426285 106.12090011 25.56420654 113.12233776 C25.55300107 121.09820874 25.54752381 129.0740805 25.54251111 137.04995739 C25.53207895 153.446076 25.51375129 169.84217293 25.4921875 186.23828125 C8.3321875 186.23828125 -8.8278125 186.23828125 -26.5078125 186.23828125 C-26.52763184 182.52908447 -26.54745117 178.8198877 -26.56787109 174.99829102 C-26.63482661 162.73273701 -26.71236732 150.46726899 -26.79533958 138.2018137 C-26.8453798 130.76648053 -26.89182341 123.33115792 -26.9296875 115.89575195 C-26.9627138 109.4121637 -27.0026031 102.92865946 -27.05060256 96.44516414 C-27.07576227 93.01482884 -27.09757407 89.5845485 -27.11115646 86.15414619 C-27.12807805 82.31691641 -27.15712825 78.47995334 -27.18896484 74.64282227 C-27.19112503 73.51568817 -27.19328522 72.38855408 -27.19551086 71.2272644 C-27.31572866 59.85830502 -29.1339981 48.61209565 -37.5078125 40.23828125 C-48.3211596 33.001333 -60.24853796 31.55283727 -72.8984375 33.85546875 C-81.14910916 36.24604797 -87.41372877 40.43790135 -92.1015625 47.7109375 C-99.63162752 62.57406003 -97.84743889 80.81912148 -97.921875 96.98046875 C-97.94061212 99.56121421 -97.96018738 102.1419537 -97.9805603 104.72268677 C-98.02642008 110.78540835 -98.06392327 116.84812708 -98.09723318 122.91092885 C-98.13947023 130.50318155 -98.19474713 138.09533278 -98.25 145.6875 C-98.34831397 159.20437081 -98.42717725 172.72126779 -98.5078125 186.23828125 C-115.3378125 186.23828125 -132.1678125 186.23828125 -149.5078125 186.23828125 C-149.5078125 121.88828125 -149.5078125 57.53828125 -149.5078125 -8.76171875 C-133.3378125 -8.76171875 -117.1678125 -8.76171875 -100.5078125 -8.76171875 C-100.1778125 -2.16171875 -99.8478125 4.43828125 -99.5078125 11.23828125 C-98.5590625 9.89765625 -97.6103125 8.55703125 -96.6328125 7.17578125 C-87.57755261 -4.3837389 -73.09540633 -10.52921549 -58.76367188 -12.53466797 C-37.58185371 -14.66660421 -17.72715976 -12.45319167 0 0 Z " fill="#000000" transform="translate(1443.5078125,152.76171875)"/>
<path d="M0 0 C19.1678784 18.15256542 28.00373166 38.81598182 29.09741211 65.05688477 C29.22270855 69.68223677 29.23494829 74.30417317 29.20361328 78.9309082 C29.18748883 81.75195475 29.20359376 84.57157363 29.22265625 87.39257812 C29.25564555 114.68542711 23.52333701 139.03626132 4.31640625 159.37890625 C-14.33660629 176.57692561 -37.87746295 183.1346017 -62.75 183.0625 C-63.45615448 183.06195618 -64.16230896 183.06141235 -64.88986206 183.06085205 C-76.05902329 183.02134205 -86.54072229 182.26638614 -97.1875 178.6875 C-97.84443848 178.47319336 -98.50137695 178.25888672 -99.17822266 178.03808594 C-119.69155693 171.14849384 -135.94678256 157.30242166 -146.0078125 138.23828125 C-152.39247131 124.16957328 -155.31467049 109.34701603 -155.390625 93.94921875 C-155.39632507 93.02897415 -155.40202515 92.10872955 -155.40789795 91.16059875 C-155.41730222 89.21669648 -155.42386363 87.27277859 -155.42773438 85.32885742 C-155.43734656 82.42141059 -155.46837498 79.51470052 -155.5 76.60742188 C-155.66166566 48.38174007 -150.56881367 24.43938301 -130.1875 3.6875 C-129.43855469 2.9140625 -128.68960938 2.140625 -127.91796875 1.34375 C-95.99284853 -29.57543774 -32.98217878 -28.77707764 0 0 Z M-95.1875 33.6875 C-103.97570306 44.96419934 -105.33591314 56.99686043 -105.35546875 70.89453125 C-105.35879715 71.74117844 -105.36212555 72.58782562 -105.36555481 73.46012878 C-105.37058209 75.23912011 -105.37296445 77.01812072 -105.37280273 78.79711914 C-105.37498597 81.48274673 -105.39317797 84.16796058 -105.41210938 86.85351562 C-105.46632291 102.96212028 -104.90025046 119.68834618 -93.06640625 132.0078125 C-83.5785751 140.48965739 -72.67762535 142.67378965 -60.1875 142.6875 C-49.17430023 141.95150245 -38.67529951 138.07456955 -31.1875 129.6875 C-22.85737677 118.35145966 -21.03821116 106.08851718 -21.01953125 92.359375 C-21.01620285 91.48911682 -21.01287445 90.61885864 -21.00944519 89.722229 C-21.00441029 87.89018273 -21.00203579 86.0581274 -21.00219727 84.22607422 C-21.00001706 81.45915188 -20.98184166 78.69263296 -20.96289062 75.92578125 C-20.91138773 59.95925515 -21.5015775 44.57072417 -32.14453125 31.7265625 C-40.72543176 23.16206907 -51.44472681 20.42903867 -63.1875 20.3125 C-75.91812769 20.42600324 -86.63523986 23.784883 -95.1875 33.6875 Z " fill="#000000" transform="translate(1099.1875,160.3125)"/>
<path d="M0 0 C16.17 0 32.34 0 49 0 C49.0093457 6.97560059 49.01869141 13.95120117 49.02832031 21.13818359 C49.06105318 43.4773819 49.11335641 65.81650608 49.17792095 88.15563341 C49.18793797 91.62768097 49.19778218 95.09972899 49.20751953 98.57177734 C49.2094609 99.26297687 49.21140228 99.95417639 49.21340248 100.66632135 C49.24439291 111.84665169 49.26139486 123.02696152 49.27319422 134.2073267 C49.28562114 145.68610374 49.3134532 157.16475763 49.35461307 168.64346945 C49.37723632 175.08809803 49.39291014 181.53257352 49.39188385 187.97724533 C49.39113777 194.04623504 49.40906835 200.11488619 49.44116783 206.1837883 C49.4496691 208.40812638 49.45141524 210.63250242 49.44580269 212.85684967 C49.43914493 215.90157213 49.45712672 218.945223 49.48101807 221.98983765 C49.47325765 222.86340924 49.46549723 223.73698083 49.45750165 224.63702428 C49.5518607 231.46246064 51.07858645 238.09852277 55.24308991 243.66011655 C61.30875687 249.05346206 69.0501495 248.00626869 77 249 C77 262.86 77 276.72 77 291 C53.00062459 291 34.71911671 289.33539165 16.78125 272.9765625 C-1.00018681 254.57961442 -0.15554505 229.52815972 -0.11352539 205.70800781 C-0.11324296 203.45996095 -0.11340234 201.211914 -0.1139679 198.96386719 C-0.11425369 192.89038317 -0.10839219 186.81691908 -0.10139394 180.74343967 C-0.09512411 174.38533696 -0.09455373 168.02723375 -0.09336853 161.66912842 C-0.09061795 151.00695411 -0.08438039 140.34478763 -0.07543945 129.68261719 C-0.06624452 118.70605505 -0.05917389 107.7294949 -0.05493164 96.75292969 C-0.05466892 96.07504738 -0.05440619 95.39716507 -0.05413551 94.69874087 C-0.05283036 91.29762025 -0.05156668 87.89649961 -0.05032361 84.49537897 C-0.03997599 56.33024645 -0.02155122 28.1651263 0 0 Z " fill="#000000" transform="translate(1785,53)"/>
<path d="M0 0 C15.84 0 31.68 0 48 0 C48.029729 10.18290894 48.029729 10.18290894 48.06005859 20.5715332 C48.12493223 42.31821173 48.1994692 64.06484865 48.28005161 85.81147446 C48.29256976 89.19210575 48.30500265 92.57273734 48.31738281 95.95336914 C48.31984881 96.62636266 48.3223148 97.29935619 48.32485552 97.99274345 C48.36452711 108.87492937 48.39729916 119.7571256 48.42749982 130.63934145 C48.45866678 141.81411659 48.49744438 152.98885117 48.54279006 164.16357869 C48.56800585 170.43661396 48.5898017 176.70961858 48.60334396 182.98269081 C48.6162089 188.89154482 48.63831108 194.80029348 48.66738319 200.70908928 C48.67642435 202.8733468 48.68214108 205.03762126 48.68421364 207.20189667 C47.74519117 226.25147205 47.74519117 226.25147205 55 243 C62.69207824 248.80830398 66.26453428 248.17419494 77 249 C77 262.86 77 276.72 77 291 C52.69719067 291 33.72406868 289.07223118 15.75 272.1875 C-0.28912639 255.3399499 -0.30199505 232.97031128 -0.22705078 211.15722656 C-0.22648596 208.85006719 -0.22680462 206.54290746 -0.22793579 204.23574829 C-0.22850751 198.00108871 -0.21678241 191.76650673 -0.20278788 185.53186512 C-0.19025042 179.00560211 -0.18910764 172.47933716 -0.18673706 165.95306396 C-0.18156841 155.00840924 -0.16875924 144.06378156 -0.15087891 133.11914062 C-0.13249025 121.85156393 -0.1183484 110.58399494 -0.10986328 99.31640625 C-0.10933783 98.62060197 -0.10881239 97.92479768 -0.10827102 97.20790842 C-0.10566074 93.71688341 -0.10313337 90.22585834 -0.10064721 86.73483324 C-0.07995052 57.82320001 -0.04310019 28.91160934 0 0 Z " fill="#000000" transform="translate(1694,53)"/>
<path d="M0 0 C0 16.83 0 33.66 0 51 C-6.27 51.33 -12.54 51.66 -19 52 C-31.9399071 54.13882762 -42.71179844 57.30554637 -51 68 C-60.98852156 83.40180195 -60.46130164 100.90490787 -60.51171875 118.55859375 C-60.52859711 120.80160993 -60.54675151 123.04461683 -60.56611633 125.28761292 C-60.61327972 131.14162292 -60.64330573 136.9955953 -60.66955566 142.84973145 C-60.70481903 149.90024634 -60.76173445 156.95061684 -60.81494904 164.00101471 C-60.89306736 174.66732383 -60.94397211 185.3334491 -61 196 C-78.16 196 -95.32 196 -113 196 C-113 131.65 -113 67.3 -113 1 C-96.83 1 -80.66 1 -64 1 C-63.67 10.9 -63.34 20.8 -63 31 C-61.35 27.7 -59.7 24.4 -58 21 C-49.86227485 9.58604784 -39.40700056 4.21570124 -26 1 C-17.41409424 -0.22655797 -8.67307455 0 0 0 Z " fill="#000000" transform="translate(1266,143)"/>
</svg>
